<svg id="svg" version="1.1" xmlns="http://www.w3.org/2000/svg" xmlns:xlink="http://www.w3.org/1999/xlink" width="400" height="400" viewBox="0, 0, 400,400"><g id="svgg"><path id="path0" d="M160.800 36.800 C 160.800 37.020,159.889 37.200,158.776 37.200 C 157.529 37.200,156.848 37.353,157.000 37.600 C 157.232 37.976,156.725 38.112,155.109 38.108 C 154.729 38.107,154.515 38.262,154.633 38.453 C 154.751 38.644,154.487 38.800,154.047 38.800 C 153.607 38.800,153.136 38.980,153.000 39.200 C 152.864 39.420,152.393 39.600,151.953 39.600 C 151.513 39.600,151.264 39.780,151.400 40.000 C 151.536 40.220,151.277 40.400,150.824 40.400 C 150.371 40.400,150.000 40.580,150.000 40.800 C 150.000 41.020,149.799 41.200,149.553 41.200 C 149.307 41.200,148.590 41.785,147.959 42.500 C 147.329 43.215,146.810 43.569,146.806 43.287 C 146.803 43.004,146.035 43.654,145.100 44.730 C 142.463 47.764,141.845 48.649,140.440 51.400 C 139.825 52.603,139.774 52.784,139.661 54.124 C 139.627 54.522,139.458 54.760,139.285 54.652 C 139.112 54.545,138.930 54.940,138.881 55.529 C 138.833 56.118,138.615 56.660,138.397 56.733 C 138.178 56.807,137.997 57.977,137.994 59.333 C 137.990 61.021,137.870 61.613,137.614 61.208 C 137.380 60.838,137.239 72.147,137.239 91.408 C 137.235 235.417,137.224 237.984,136.602 237.746 C 136.274 237.619,136.099 237.364,136.214 237.178 C 136.328 236.992,136.057 236.645,135.611 236.406 C 135.165 236.167,134.800 235.785,134.800 235.557 C 134.800 235.329,134.575 234.902,134.300 234.607 C 134.025 234.312,133.170 233.305,132.400 232.368 C 131.630 231.431,130.595 230.253,130.100 229.750 C 129.605 229.248,129.200 228.725,129.200 228.590 C 129.200 228.173,128.084 227.200,127.605 227.200 C 127.356 227.200,127.260 227.026,127.392 226.813 C 127.523 226.600,127.264 226.197,126.816 225.917 C 126.367 225.637,126.000 225.155,126.000 224.847 C 126.000 224.539,125.476 223.786,124.836 223.174 C 124.196 222.562,123.776 221.958,123.903 221.831 C 124.029 221.704,123.823 221.600,123.443 221.600 C 123.063 221.600,122.864 221.420,123.000 221.200 C 123.136 220.980,123.057 220.800,122.824 220.800 C 122.591 220.800,122.400 220.530,122.400 220.200 C 122.400 219.870,122.119 219.600,121.776 219.600 C 121.433 219.600,121.264 219.420,121.400 219.200 C 121.536 218.980,121.457 218.800,121.224 218.800 C 120.991 218.800,120.800 218.612,120.800 218.382 C 120.800 218.152,120.363 217.527,119.829 216.993 C 119.295 216.459,118.536 215.477,118.142 214.810 C 117.749 214.144,117.106 213.497,116.713 213.373 C 116.321 213.248,116.000 212.888,116.000 212.573 C 116.000 212.258,115.700 212.000,115.333 212.000 C 114.967 212.000,114.781 211.886,114.920 211.747 C 115.164 211.502,113.355 209.843,113.104 210.082 C 112.955 210.224,112.038 209.481,110.039 207.600 C 109.221 206.830,108.133 205.958,107.621 205.662 C 104.766 204.013,103.919 203.600,103.388 203.600 C 103.065 203.600,102.800 203.420,102.800 203.200 C 102.800 202.980,102.451 202.800,102.024 202.800 C 101.597 202.800,101.136 202.620,101.000 202.400 C 100.864 202.180,100.313 202.000,99.776 202.000 C 99.239 202.000,98.800 201.820,98.800 201.600 C 98.800 201.380,98.665 201.221,98.500 201.247 C 97.117 201.466,94.681 201.135,95.200 200.800 C 95.610 200.535,94.574 200.410,91.924 200.406 C 89.792 200.403,87.943 200.231,87.815 200.025 C 87.688 199.818,87.182 199.755,86.692 199.884 C 86.201 200.012,84.720 200.199,83.400 200.297 C 82.080 200.396,80.740 200.684,80.423 200.938 C 79.960 201.309,79.912 201.282,80.182 200.800 C 80.455 200.312,80.417 200.293,79.979 200.700 C 79.682 200.975,78.857 201.200,78.144 201.200 C 77.431 201.200,76.736 201.380,76.600 201.600 C 76.464 201.820,75.908 202.000,75.364 202.000 C 74.820 202.000,74.276 202.259,74.154 202.575 C 74.033 202.891,73.683 203.053,73.377 202.936 C 73.071 202.818,72.531 203.011,72.178 203.365 C 71.825 203.718,71.370 203.905,71.168 203.780 C 70.965 203.655,70.800 203.743,70.800 203.976 C 70.800 204.209,70.429 204.400,69.976 204.400 C 69.523 204.400,69.264 204.580,69.400 204.800 C 69.536 205.020,69.311 205.200,68.899 205.200 C 68.488 205.200,67.764 205.560,67.292 206.000 C 66.820 206.440,66.280 206.800,66.092 206.800 C 65.904 206.800,65.402 207.124,64.975 207.520 C 64.549 207.916,63.526 208.697,62.702 209.255 C 61.878 209.814,61.307 210.374,61.432 210.499 C 61.558 210.624,61.284 210.846,60.824 210.992 C 60.365 211.138,60.092 211.425,60.218 211.629 C 60.344 211.833,60.167 212.000,59.824 212.000 C 59.481 212.000,59.200 212.281,59.200 212.624 C 59.200 212.967,59.043 213.150,58.852 213.032 C 58.660 212.913,58.092 213.173,57.590 213.608 C 57.088 214.044,56.515 214.400,56.315 214.400 C 56.116 214.400,56.064 214.580,56.200 214.800 C 56.336 215.020,56.232 215.200,55.969 215.200 C 54.556 215.200,53.367 217.458,54.200 218.559 C 54.516 218.976,54.680 219.471,54.564 219.659 C 54.448 219.847,54.543 220.000,54.776 220.000 C 55.009 220.000,55.200 220.270,55.200 220.600 C 55.200 220.930,55.380 221.200,55.600 221.200 C 55.820 221.200,56.000 221.436,56.000 221.725 C 56.000 222.013,56.315 222.605,56.700 223.040 C 57.085 223.475,57.451 224.094,57.514 224.416 C 57.664 225.187,58.868 227.642,59.468 228.400 C 59.729 228.730,59.944 229.090,59.946 229.200 C 59.951 229.584,60.544 231.002,60.782 231.200 C 60.914 231.310,61.359 232.165,61.772 233.100 C 62.184 234.035,62.669 234.800,62.848 234.800 C 63.028 234.800,63.078 235.052,62.960 235.360 C 62.842 235.667,62.966 236.055,63.235 236.221 C 63.568 236.427,63.621 236.357,63.400 236.000 C 63.182 235.647,63.232 235.573,63.554 235.772 C 63.817 235.934,63.923 236.413,63.789 236.836 C 63.631 237.332,63.766 237.689,64.170 237.844 C 64.514 237.976,64.679 238.272,64.537 238.503 C 64.394 238.733,64.587 239.148,64.966 239.424 C 65.344 239.701,65.664 240.079,65.678 240.264 C 65.715 240.776,66.114 241.775,66.371 242.000 C 66.497 242.110,67.050 243.142,67.600 244.294 C 68.150 245.445,68.735 246.390,68.900 246.394 C 69.065 246.397,69.200 246.760,69.200 247.200 C 69.200 247.640,69.380 248.000,69.600 248.000 C 69.820 248.000,70.000 248.371,70.000 248.824 C 70.000 249.277,70.180 249.536,70.400 249.400 C 70.748 249.185,70.990 249.996,70.847 250.900 C 70.821 251.065,70.980 251.200,71.200 251.200 C 71.420 251.200,71.600 251.560,71.600 252.000 C 71.600 252.440,71.780 252.800,72.000 252.800 C 72.220 252.800,72.400 253.141,72.400 253.557 C 72.400 253.974,72.672 254.419,73.004 254.546 C 73.336 254.673,73.577 254.918,73.540 255.089 C 73.444 255.534,74.077 256.956,74.497 257.240 C 74.693 257.372,74.897 257.732,74.951 258.040 C 75.168 259.286,76.674 261.995,76.989 261.708 C 77.175 261.539,77.215 261.714,77.077 262.097 C 76.920 262.537,77.154 263.112,77.714 263.656 C 78.201 264.130,78.392 264.401,78.137 264.258 C 77.788 264.063,77.787 264.236,78.131 264.965 C 78.382 265.497,78.725 265.846,78.893 265.742 C 79.062 265.638,79.200 265.887,79.200 266.296 C 79.200 266.705,79.425 267.265,79.700 267.540 C 79.975 267.815,80.209 268.166,80.220 268.320 C 80.272 269.043,82.064 272.400,82.397 272.400 C 82.605 272.400,82.671 272.670,82.545 273.000 C 82.418 273.330,82.514 273.600,82.757 273.600 C 83.001 273.600,83.200 273.960,83.200 274.400 C 83.200 274.840,83.380 275.200,83.600 275.200 C 83.820 275.200,84.000 275.560,84.000 276.000 C 84.000 276.440,84.180 276.800,84.400 276.800 C 84.620 276.800,84.800 277.160,84.800 277.600 C 84.800 278.040,84.980 278.400,85.200 278.400 C 85.420 278.400,85.603 278.805,85.606 279.300 C 85.611 280.028,85.686 280.085,86.000 279.600 C 86.320 279.105,86.389 279.144,86.394 279.820 C 86.401 280.799,87.276 282.792,87.700 282.797 C 87.865 282.799,88.000 283.042,88.000 283.338 C 88.000 283.634,88.360 284.202,88.800 284.600 C 89.240 284.998,89.600 285.746,89.600 286.262 C 89.600 286.778,89.780 287.200,90.000 287.200 C 90.220 287.200,90.400 287.571,90.400 288.024 C 90.400 288.477,90.580 288.736,90.800 288.600 C 91.020 288.464,91.200 288.613,91.200 288.930 C 91.200 289.658,94.417 296.154,94.867 296.333 C 95.050 296.407,95.200 296.805,95.200 297.219 C 95.200 297.633,95.544 298.156,95.964 298.381 C 96.422 298.626,96.654 299.073,96.543 299.497 C 96.441 299.886,96.727 300.601,97.179 301.085 C 97.631 301.570,98.000 302.334,98.000 302.783 C 98.000 303.232,98.180 303.600,98.400 303.600 C 98.620 303.600,98.800 303.851,98.800 304.157 C 98.800 304.464,99.081 304.822,99.425 304.954 C 99.769 305.086,99.932 305.387,99.786 305.622 C 99.641 305.858,99.837 306.399,100.223 306.825 C 100.608 307.251,100.761 307.603,100.562 307.606 C 100.363 307.609,100.380 307.744,100.600 307.906 C 101.122 308.289,102.000 309.868,102.000 310.423 C 102.000 310.662,102.272 311.129,102.604 311.461 C 102.936 311.793,103.105 312.230,102.980 312.432 C 102.855 312.635,102.943 312.800,103.176 312.800 C 103.409 312.800,103.600 313.036,103.600 313.325 C 103.600 313.613,103.967 314.243,104.416 314.725 C 104.940 315.287,105.047 315.602,104.716 315.606 C 104.370 315.610,104.343 315.709,104.632 315.906 C 104.870 316.068,105.313 316.772,105.617 317.471 C 105.921 318.170,106.312 318.655,106.485 318.548 C 106.658 318.440,106.800 318.603,106.800 318.909 C 106.800 319.841,108.661 323.203,109.005 322.892 C 109.182 322.731,109.216 322.910,109.081 323.288 C 108.945 323.667,109.088 324.231,109.398 324.541 C 109.708 324.851,109.855 325.212,109.724 325.343 C 109.593 325.474,109.761 325.687,110.099 325.816 C 110.471 325.960,110.632 326.355,110.509 326.826 C 110.368 327.364,110.511 327.600,110.977 327.600 C 111.346 327.600,111.539 327.775,111.407 327.989 C 111.275 328.202,111.445 328.802,111.785 329.321 C 112.125 329.839,112.282 330.384,112.135 330.532 C 111.987 330.679,112.077 330.800,112.333 330.800 C 112.590 330.800,112.800 331.081,112.800 331.424 C 112.800 331.767,112.943 331.959,113.117 331.851 C 113.291 331.744,113.458 331.972,113.487 332.359 C 113.516 332.747,113.908 333.679,114.358 334.432 C 114.808 335.184,115.424 336.340,115.726 337.000 C 116.029 337.660,116.574 338.447,116.938 338.749 C 117.302 339.051,117.600 339.726,117.600 340.249 C 117.600 340.772,117.780 341.200,118.000 341.200 C 118.220 341.200,118.400 341.470,118.400 341.800 C 118.400 342.130,118.580 342.400,118.800 342.400 C 119.020 342.400,119.200 342.771,119.200 343.224 C 119.200 343.677,119.380 343.936,119.600 343.800 C 119.827 343.660,120.000 343.996,120.000 344.576 C 120.000 345.139,120.180 345.600,120.400 345.600 C 120.620 345.600,120.800 345.960,120.800 346.400 C 120.800 346.840,120.980 347.200,121.200 347.200 C 121.420 347.200,121.600 347.483,121.600 347.829 C 121.600 348.174,121.872 348.729,122.204 349.061 C 122.536 349.393,122.705 349.830,122.580 350.032 C 122.455 350.235,122.617 350.400,122.939 350.400 C 123.328 350.400,123.455 350.669,123.316 351.200 C 123.199 351.647,123.304 352.000,123.553 352.000 C 123.799 352.000,124.000 352.371,124.000 352.824 C 124.000 353.277,124.180 353.536,124.400 353.400 C 124.620 353.264,124.822 353.343,124.850 353.576 C 124.933 354.282,125.023 354.534,125.821 356.300 C 126.243 357.235,126.712 358.000,126.863 358.000 C 127.013 358.000,127.258 358.552,127.406 359.227 C 127.554 359.902,127.917 360.547,128.212 360.660 C 128.508 360.773,128.652 361.121,128.532 361.433 C 128.412 361.745,128.514 362.000,128.757 362.000 C 129.001 362.000,129.200 362.270,129.200 362.600 C 129.200 362.930,129.380 363.200,129.600 363.200 C 129.820 363.200,130.000 363.478,130.000 363.818 C 130.000 364.158,130.453 364.890,131.008 365.444 C 131.562 365.998,131.913 366.618,131.787 366.821 C 131.662 367.024,131.928 367.586,132.380 368.070 C 132.831 368.555,133.200 369.187,133.200 369.475 C 133.200 369.764,133.350 370.000,133.532 370.000 C 133.715 370.000,134.102 370.444,134.393 370.986 C 134.683 371.529,135.078 371.875,135.270 371.757 C 135.462 371.638,135.594 371.689,135.563 371.870 C 135.416 372.712,135.663 373.166,136.392 373.397 C 136.827 373.536,137.149 373.773,137.107 373.924 C 136.960 374.451,138.196 376.000,138.763 376.000 C 139.077 376.000,139.240 376.094,139.125 376.208 C 138.827 376.506,144.336 382.220,144.807 382.100 C 145.023 382.045,145.200 382.257,145.200 382.571 C 145.200 383.371,146.376 384.462,146.894 384.142 C 147.149 383.985,147.207 384.064,147.038 384.338 C 146.881 384.592,146.898 384.800,147.076 384.800 C 147.254 384.801,147.880 385.206,148.466 385.700 C 149.053 386.195,149.909 386.915,150.370 387.299 C 150.830 387.683,151.340 387.953,151.503 387.899 C 151.666 387.845,151.869 387.980,151.954 388.200 C 152.166 388.751,153.607 389.727,153.850 389.483 C 153.959 389.374,154.472 389.708,154.990 390.226 C 155.508 390.744,156.442 391.293,157.066 391.445 C 157.689 391.598,158.293 391.863,158.406 392.034 C 158.787 392.607,163.273 394.800,164.064 394.800 C 164.495 394.800,164.736 394.980,164.600 395.200 C 164.460 395.427,164.796 395.600,165.376 395.600 C 165.939 395.600,166.400 395.780,166.400 396.000 C 166.400 396.220,166.850 396.400,167.400 396.400 C 167.950 396.400,168.400 396.541,168.400 396.713 C 168.400 396.885,168.895 397.066,169.500 397.116 C 170.105 397.166,170.660 397.385,170.733 397.603 C 170.807 397.822,171.471 398.000,172.210 398.000 C 172.948 398.000,173.664 398.180,173.800 398.400 C 173.936 398.620,174.541 398.800,175.144 398.800 C 175.747 398.800,176.465 399.025,176.740 399.300 C 177.473 400.033,288.927 400.033,289.660 399.300 C 289.935 399.025,290.743 398.800,291.456 398.800 C 292.169 398.800,292.864 398.620,293.000 398.400 C 293.136 398.180,293.777 398.000,294.424 398.000 C 295.071 398.000,295.600 397.820,295.600 397.600 C 295.600 397.380,296.140 397.200,296.800 397.200 C 297.460 397.200,298.000 397.020,298.000 396.800 C 298.000 396.580,298.349 396.400,298.776 396.400 C 299.203 396.400,299.664 396.220,299.800 396.000 C 299.936 395.780,300.467 395.600,300.981 395.600 C 301.494 395.600,302.019 395.328,302.146 394.996 C 302.273 394.664,302.518 394.423,302.689 394.460 C 303.454 394.625,306.773 392.977,307.500 392.070 C 307.914 391.554,308.001 391.546,308.006 392.024 C 308.010 392.387,308.121 392.444,308.306 392.177 C 308.468 391.945,309.185 391.518,309.900 391.229 C 310.615 390.940,311.200 390.534,311.200 390.328 C 311.200 390.122,311.380 390.064,311.600 390.200 C 311.820 390.336,312.000 390.257,312.000 390.024 C 312.000 389.791,312.261 389.600,312.580 389.600 C 312.899 389.600,313.344 389.285,313.568 388.900 C 313.792 388.515,313.981 388.361,313.988 388.558 C 313.995 388.756,314.431 388.452,314.958 387.883 C 315.485 387.315,315.997 386.930,316.095 387.028 C 316.193 387.127,316.841 386.666,317.533 386.004 C 318.226 385.342,318.892 384.800,319.014 384.800 C 319.213 384.800,320.016 384.097,323.652 380.740 C 324.283 380.156,324.800 379.525,324.800 379.337 C 324.800 379.148,325.417 378.428,326.172 377.736 C 326.926 377.043,327.436 376.369,327.305 376.238 C 327.174 376.107,327.386 376.000,327.776 376.000 C 328.236 376.000,328.406 375.793,328.260 375.413 C 328.136 375.090,328.235 374.702,328.479 374.551 C 328.767 374.373,328.810 374.461,328.600 374.800 C 328.386 375.146,328.433 375.227,328.738 375.038 C 328.992 374.881,329.200 374.572,329.200 374.351 C 329.200 374.129,329.740 373.494,330.400 372.939 C 331.060 372.383,331.600 371.555,331.600 371.098 C 331.600 370.641,331.718 370.385,331.863 370.529 C 332.188 370.854,334.800 366.952,334.800 366.141 C 334.800 365.818,334.980 365.664,335.200 365.800 C 335.420 365.936,335.600 365.767,335.600 365.424 C 335.600 365.081,335.791 364.800,336.024 364.800 C 336.257 364.800,336.335 364.619,336.198 364.397 C 336.061 364.176,336.231 363.886,336.575 363.754 C 336.919 363.622,337.200 363.300,337.200 363.037 C 337.200 362.335,338.152 360.407,338.500 360.403 C 338.665 360.401,338.800 360.051,338.800 359.624 C 338.800 359.197,338.996 358.726,339.235 358.578 C 339.474 358.431,339.582 357.976,339.476 357.569 C 339.364 357.142,339.477 356.864,339.741 356.914 C 339.993 356.961,340.200 356.640,340.200 356.200 C 340.200 355.760,340.429 355.254,340.708 355.075 C 340.988 354.897,341.120 354.594,341.002 354.403 C 340.884 354.212,340.970 353.942,341.193 353.804 C 341.417 353.666,341.603 352.798,341.606 351.876 C 341.611 350.647,341.716 350.360,342.000 350.800 C 342.288 351.245,342.389 351.007,342.394 349.876 C 342.398 348.964,342.560 348.452,342.800 348.600 C 343.043 348.750,343.202 348.169,343.206 347.124 C 343.211 345.863,343.316 345.561,343.600 346.000 C 343.884 346.439,343.989 346.145,343.994 344.900 C 343.997 343.965,344.180 343.200,344.400 343.200 C 344.620 343.200,344.800 342.401,344.800 341.424 C 344.800 340.447,344.980 339.536,345.200 339.400 C 345.420 339.264,345.600 338.083,345.600 336.776 C 345.600 335.469,345.778 334.400,345.996 334.400 C 346.482 334.400,346.308 189.270,345.819 187.242 C 345.639 186.495,345.256 185.428,344.967 184.870 C 344.677 184.313,344.532 183.709,344.644 183.529 C 344.756 183.348,344.657 183.200,344.424 183.200 C 344.191 183.200,343.996 182.975,343.991 182.700 C 343.986 182.425,343.630 181.750,343.200 181.200 C 342.770 180.650,342.414 179.962,342.409 179.672 C 342.388 178.442,337.172 172.161,336.625 172.708 C 336.501 172.832,336.400 172.633,336.400 172.267 C 336.400 171.900,336.106 171.600,335.747 171.600 C 335.388 171.600,334.803 171.285,334.447 170.900 C 334.091 170.515,333.530 170.142,333.200 170.070 C 332.870 169.999,332.540 169.774,332.467 169.570 C 332.393 169.367,331.988 169.200,331.567 169.200 C 331.145 169.200,330.800 169.020,330.800 168.800 C 330.800 168.580,330.440 168.400,330.000 168.400 C 329.560 168.400,329.200 168.220,329.200 168.000 C 329.200 167.780,328.660 167.600,328.000 167.600 C 327.310 167.600,326.797 167.388,326.794 167.100 C 326.790 166.767,326.658 166.800,326.400 167.200 C 326.142 167.600,326.010 167.633,326.006 167.300 C 326.002 166.948,325.170 166.800,323.200 166.800 C 321.647 166.800,320.400 166.626,320.400 166.410 C 320.400 166.156,320.041 166.156,319.374 166.410 C 318.810 166.624,317.427 166.800,316.302 166.800 C 314.184 166.800,312.197 167.288,310.300 168.274 C 309.695 168.588,309.200 168.717,309.200 168.561 C 309.200 168.404,308.885 168.553,308.500 168.891 C 308.115 169.229,307.395 169.629,306.900 169.780 C 306.405 169.930,306.000 170.222,306.000 170.427 C 306.000 170.632,305.739 170.800,305.421 170.800 C 304.804 170.800,298.000 177.383,298.000 177.980 C 298.000 178.174,297.865 178.393,297.700 178.467 C 297.093 178.737,295.535 182.055,295.752 182.618 C 295.885 182.965,295.737 183.200,295.387 183.200 C 295.001 183.200,294.800 183.611,294.800 184.400 C 294.800 185.060,294.620 185.600,294.400 185.600 C 294.152 185.600,294.000 183.475,294.000 180.024 C 294.000 176.737,293.836 174.346,293.600 174.200 C 293.380 174.064,293.200 173.344,293.200 172.600 C 293.200 171.856,293.020 171.136,292.800 171.000 C 292.580 170.864,292.400 170.403,292.400 169.976 C 292.400 169.549,292.220 169.200,292.000 169.200 C 291.780 169.200,291.600 168.806,291.600 168.325 C 291.600 167.406,290.033 164.807,289.476 164.803 C 289.298 164.801,289.248 164.647,289.364 164.459 C 289.480 164.271,289.297 163.776,288.958 163.359 C 288.618 162.942,288.472 162.853,288.632 163.162 C 288.825 163.534,288.766 163.626,288.455 163.434 C 288.198 163.275,288.086 162.984,288.207 162.789 C 288.512 162.295,285.649 159.200,284.887 159.200 C 284.546 159.200,284.377 159.090,284.511 158.956 C 284.805 158.662,282.672 156.800,282.042 156.800 C 281.799 156.800,281.600 156.620,281.600 156.400 C 281.600 156.180,281.285 155.996,280.900 155.991 C 280.515 155.986,279.750 155.630,279.200 155.200 C 278.650 154.770,277.784 154.414,277.276 154.409 C 276.764 154.404,276.463 154.222,276.600 154.000 C 276.744 153.767,276.337 153.600,275.624 153.600 C 274.951 153.600,274.400 153.412,274.400 153.182 C 274.400 152.094,260.501 152.965,259.341 154.126 C 259.190 154.277,258.557 154.400,257.933 154.400 C 257.310 154.400,256.800 154.580,256.800 154.800 C 256.800 155.020,256.483 155.200,256.096 155.200 C 255.709 155.200,255.168 155.560,254.893 156.000 C 254.618 156.440,254.074 156.800,253.685 156.800 C 253.295 156.800,252.717 157.160,252.400 157.600 C 252.083 158.040,251.685 158.400,251.516 158.400 C 250.917 158.400,249.645 159.749,249.882 160.133 C 250.015 160.348,249.930 160.404,249.694 160.258 C 249.457 160.112,248.894 160.489,248.441 161.096 C 247.988 161.703,247.325 162.503,246.968 162.872 C 246.611 163.242,246.440 163.741,246.589 163.982 C 246.740 164.227,246.626 164.371,246.330 164.310 C 246.038 164.249,245.845 164.425,245.900 164.700 C 245.955 164.975,245.824 165.200,245.610 165.200 C 245.056 165.200,243.451 168.823,243.527 169.900 C 243.562 170.395,243.426 170.800,243.225 170.800 C 243.023 170.800,242.776 171.115,242.676 171.500 C 242.575 171.885,242.472 170.906,242.446 169.324 C 242.421 167.742,242.220 166.336,242.000 166.200 C 241.780 166.064,241.600 165.233,241.600 164.353 C 241.600 163.347,241.446 162.848,241.184 163.010 C 240.917 163.175,240.856 162.917,241.013 162.291 C 241.173 161.653,241.030 161.087,240.600 160.658 C 240.239 160.296,240.066 160.000,240.217 160.000 C 240.368 160.000,240.197 159.550,239.837 159.000 C 239.476 158.450,239.321 157.997,239.491 157.994 C 239.661 157.991,239.620 157.856,239.400 157.694 C 239.180 157.532,238.775 156.995,238.500 156.500 C 237.241 154.235,236.924 153.785,235.769 152.630 C 235.091 151.954,234.416 151.355,234.269 151.300 C 234.121 151.245,233.968 151.065,233.929 150.900 C 233.807 150.390,232.881 149.600,232.405 149.600 C 232.156 149.600,232.042 149.455,232.151 149.279 C 232.260 149.102,231.641 148.520,230.775 147.984 C 229.909 147.449,229.200 146.854,229.200 146.663 C 229.200 146.471,228.936 146.416,228.613 146.540 C 228.290 146.664,227.918 146.590,227.785 146.376 C 227.415 145.777,224.846 144.807,224.242 145.039 C 223.946 145.153,223.590 144.952,223.452 144.592 C 223.274 144.129,222.765 143.959,221.701 144.008 C 219.557 144.107,219.126 144.044,219.359 143.666 C 219.473 143.482,217.849 143.324,215.752 143.314 C 213.036 143.301,211.883 143.441,211.745 143.800 C 211.623 144.116,211.071 144.241,210.271 144.133 C 208.880 143.946,206.000 144.954,206.000 145.629 C 206.000 145.859,205.840 145.949,205.645 145.828 C 205.450 145.707,205.084 145.858,204.831 146.163 C 204.578 146.468,204.045 146.632,203.647 146.528 C 203.196 146.410,202.458 146.803,201.692 147.569 C 201.015 148.246,200.287 148.800,200.074 148.800 C 199.860 148.800,199.578 149.081,199.446 149.425 C 199.314 149.769,199.037 149.946,198.831 149.819 C 198.426 149.569,195.096 153.208,195.286 153.692 C 195.349 153.853,194.995 154.268,194.500 154.615 C 194.005 154.962,193.600 155.513,193.600 155.839 C 193.600 156.166,193.240 156.820,192.800 157.292 C 192.072 158.073,191.808 158.841,191.963 159.730 C 191.994 159.911,191.835 159.945,191.610 159.806 C 191.364 159.654,191.200 160.043,191.200 160.776 C 191.200 161.449,191.020 162.000,190.800 162.000 C 190.468 162.000,190.072 72.035,190.360 62.300 C 190.398 61.035,190.272 60.000,190.081 60.000 C 189.722 60.000,189.690 59.874,189.502 57.729 C 189.441 57.030,189.258 56.325,189.096 56.162 C 188.933 56.000,188.800 55.357,188.800 54.733 C 188.800 54.110,188.620 53.600,188.400 53.600 C 188.180 53.600,188.000 53.328,188.000 52.995 C 188.000 52.328,187.281 50.937,186.496 50.083 C 186.219 49.782,186.112 49.342,186.258 49.106 C 186.415 48.851,186.336 48.793,186.062 48.962 C 185.792 49.129,185.600 49.000,185.600 48.652 C 185.600 48.325,184.994 47.414,184.253 46.628 C 183.512 45.843,182.991 45.200,183.095 45.200 C 183.266 45.200,182.081 44.096,179.779 42.109 C 179.328 41.719,178.698 41.341,178.379 41.270 C 178.061 41.198,177.740 40.973,177.667 40.770 C 177.593 40.566,177.278 40.400,176.967 40.400 C 176.655 40.400,176.400 40.220,176.400 40.000 C 176.400 39.780,175.939 39.600,175.376 39.600 C 174.796 39.600,174.460 39.427,174.600 39.200 C 174.736 38.980,174.564 38.800,174.218 38.800 C 173.872 38.800,173.232 38.620,172.795 38.400 C 170.936 37.465,170.512 37.343,168.800 37.254 C 167.810 37.202,166.940 36.989,166.867 36.780 C 166.687 36.267,160.800 36.286,160.800 36.800 " stroke="none" fill="#f4cca4" fill-rule="evenodd"></path><path id="path1" d="M151.700 0.274 C 150.545 0.366,149.600 0.612,149.600 0.821 C 149.600 1.029,148.880 1.200,148.000 1.200 C 147.120 1.200,146.400 1.380,146.400 1.600 C 146.400 1.820,145.860 2.000,145.200 2.000 C 144.540 2.000,144.000 2.180,144.000 2.400 C 144.000 2.620,143.550 2.800,143.000 2.800 C 142.450 2.800,142.000 2.980,142.000 3.200 C 142.000 3.420,141.460 3.600,140.800 3.600 C 140.140 3.600,139.600 3.780,139.600 4.000 C 139.600 4.220,139.240 4.400,138.800 4.400 C 138.360 4.400,138.000 4.580,138.000 4.800 C 138.000 5.020,137.640 5.200,137.200 5.200 C 136.760 5.200,136.400 5.380,136.400 5.600 C 136.400 5.820,136.040 6.000,135.600 6.000 C 135.160 6.000,134.800 6.180,134.800 6.400 C 134.800 6.620,134.440 6.800,134.000 6.800 C 133.560 6.800,133.200 6.980,133.200 7.200 C 133.200 7.420,132.880 7.600,132.488 7.600 C 132.097 7.600,131.524 7.950,131.215 8.379 C 130.907 8.807,130.528 9.079,130.374 8.984 C 130.220 8.889,129.639 9.168,129.084 9.605 C 128.528 10.042,127.911 10.400,127.712 10.400 C 127.513 10.400,126.832 10.940,126.200 11.600 C 125.568 12.260,124.895 12.800,124.706 12.800 C 124.209 12.800,115.200 21.974,115.200 22.481 C 115.200 22.715,114.876 23.197,114.481 23.553 C 114.086 23.909,113.329 24.830,112.800 25.600 C 112.271 26.370,111.740 27.090,111.619 27.200 C 111.498 27.310,111.129 27.940,110.800 28.600 C 110.471 29.260,110.091 29.890,109.956 30.000 C 109.498 30.375,108.400 32.758,108.400 33.380 C 108.400 33.721,108.220 34.000,108.000 34.000 C 107.780 34.000,107.600 34.360,107.600 34.800 C 107.600 35.240,107.420 35.600,107.200 35.600 C 106.980 35.600,106.800 36.140,106.800 36.800 C 106.800 37.460,106.620 38.000,106.400 38.000 C 106.180 38.000,106.000 38.360,106.000 38.800 C 106.000 39.240,105.820 39.600,105.600 39.600 C 105.380 39.600,105.200 40.140,105.200 40.800 C 105.200 41.460,105.020 42.000,104.800 42.000 C 104.580 42.000,104.400 42.630,104.400 43.400 C 104.400 44.170,104.220 44.800,104.000 44.800 C 103.780 44.800,103.600 45.520,103.600 46.400 C 103.600 47.280,103.420 48.000,103.200 48.000 C 102.978 48.000,102.800 49.067,102.800 50.400 C 102.800 51.733,102.622 52.800,102.400 52.800 C 102.152 52.800,102.000 55.000,102.000 58.600 C 102.000 62.200,102.152 64.400,102.400 64.400 C 102.620 64.400,102.800 64.678,102.800 65.018 C 102.800 65.818,104.582 67.600,105.382 67.600 C 105.722 67.600,106.000 67.780,106.000 68.000 C 106.000 68.235,107.400 68.400,109.400 68.400 C 111.400 68.400,112.800 68.235,112.800 68.000 C 112.800 67.780,113.078 67.600,113.418 67.600 C 114.218 67.600,116.000 65.818,116.000 65.018 C 116.000 64.678,116.180 64.400,116.400 64.400 C 116.631 64.400,116.800 63.141,116.800 61.424 C 116.800 59.787,116.980 58.336,117.200 58.200 C 117.420 58.064,117.600 56.804,117.600 55.400 C 117.600 53.996,117.780 52.736,118.000 52.600 C 118.220 52.464,118.400 51.654,118.400 50.800 C 118.400 49.946,118.580 49.136,118.800 49.000 C 119.020 48.864,119.200 48.223,119.200 47.576 C 119.200 46.929,119.380 46.400,119.600 46.400 C 119.820 46.400,120.000 46.051,120.000 45.624 C 120.000 45.197,120.180 44.736,120.400 44.600 C 120.620 44.464,120.800 43.928,120.800 43.410 C 120.800 42.891,120.935 42.407,121.100 42.333 C 121.265 42.260,121.849 41.300,122.398 40.200 C 123.399 38.195,124.835 35.821,125.594 34.917 C 125.817 34.651,126.000 34.232,126.000 33.986 C 126.000 33.739,126.720 32.846,127.600 32.000 C 128.480 31.154,129.200 30.314,129.200 30.131 C 129.201 29.598,130.885 27.842,132.400 26.794 C 133.170 26.262,134.038 25.595,134.330 25.312 C 134.621 25.029,135.701 24.225,136.730 23.525 C 137.758 22.825,138.690 22.136,138.800 21.994 C 138.910 21.852,139.585 21.481,140.300 21.170 C 141.015 20.859,141.600 20.469,141.600 20.302 C 141.600 20.136,141.960 20.000,142.400 20.000 C 142.840 20.000,143.200 19.820,143.200 19.600 C 143.200 19.380,143.560 19.200,144.000 19.200 C 144.440 19.200,144.800 19.020,144.800 18.800 C 144.800 18.580,145.160 18.400,145.600 18.400 C 146.040 18.400,146.400 18.220,146.400 18.000 C 146.400 17.780,146.940 17.600,147.600 17.600 C 148.260 17.600,148.800 17.420,148.800 17.200 C 148.800 16.980,149.239 16.800,149.776 16.800 C 150.313 16.800,150.864 16.620,151.000 16.400 C 151.136 16.180,151.766 16.000,152.400 16.000 C 153.034 16.000,153.664 15.820,153.800 15.600 C 153.936 15.380,154.937 15.200,156.024 15.200 C 157.111 15.200,158.000 15.020,158.000 14.800 C 158.000 14.552,160.133 14.400,163.600 14.400 C 167.067 14.400,169.200 14.552,169.200 14.800 C 169.200 15.022,170.267 15.200,171.600 15.200 C 172.933 15.200,174.000 15.378,174.000 15.600 C 174.000 15.820,174.529 16.000,175.176 16.000 C 175.823 16.000,176.464 16.180,176.600 16.400 C 176.736 16.620,177.276 16.800,177.800 16.800 C 178.324 16.800,178.864 16.980,179.000 17.200 C 179.136 17.420,179.597 17.600,180.024 17.600 C 180.451 17.600,180.800 17.780,180.800 18.000 C 180.800 18.220,181.021 18.400,181.291 18.400 C 182.053 18.400,187.200 20.901,187.200 21.271 C 187.200 21.452,187.560 21.600,188.000 21.600 C 188.440 21.600,188.800 21.750,188.800 21.932 C 188.800 22.115,189.295 22.520,189.900 22.832 C 190.505 23.145,191.413 23.805,191.918 24.300 C 192.423 24.795,192.987 25.200,193.172 25.200 C 193.645 25.200,198.800 30.257,198.800 30.721 C 198.800 30.931,199.520 31.845,200.400 32.752 C 201.280 33.659,202.000 34.631,202.000 34.912 C 202.000 35.193,202.360 35.683,202.800 36.000 C 203.240 36.317,203.600 36.897,203.600 37.288 C 203.600 37.680,203.746 38.000,203.925 38.000 C 204.104 38.000,204.498 38.630,204.800 39.400 C 205.102 40.170,205.496 40.800,205.675 40.800 C 205.854 40.800,206.000 41.160,206.000 41.600 C 206.000 42.040,206.180 42.400,206.400 42.400 C 206.620 42.400,206.800 42.760,206.800 43.200 C 206.800 43.640,206.980 44.000,207.200 44.000 C 207.420 44.000,207.600 44.540,207.600 45.200 C 207.600 45.860,207.760 46.400,207.956 46.400 C 208.271 46.400,208.739 48.323,208.832 50.000 C 208.850 50.330,209.023 51.050,209.215 51.600 C 209.665 52.884,210.029 56.040,210.266 60.700 C 210.370 62.735,210.623 64.400,210.827 64.400 C 211.032 64.400,211.200 64.625,211.200 64.900 C 211.201 65.675,213.016 67.600,213.747 67.600 C 214.106 67.600,214.400 67.780,214.400 68.000 C 214.400 68.237,215.867 68.400,218.000 68.400 C 220.133 68.400,221.600 68.237,221.600 68.000 C 221.600 67.780,221.836 67.600,222.125 67.600 C 225.330 67.600,226.370 55.815,223.996 46.400 C 223.746 45.410,223.446 44.015,223.327 43.300 C 223.209 42.585,222.952 42.000,222.756 42.000 C 222.560 42.000,222.400 41.460,222.400 40.800 C 222.400 40.140,222.253 39.600,222.072 39.600 C 221.892 39.600,221.500 38.700,221.200 37.600 C 220.900 36.500,220.508 35.600,220.328 35.600 C 220.147 35.600,220.000 35.240,220.000 34.800 C 220.000 34.360,219.820 34.000,219.600 34.000 C 219.380 34.000,219.200 33.640,219.200 33.200 C 219.200 32.760,219.020 32.400,218.800 32.400 C 218.580 32.400,218.400 32.040,218.400 31.600 C 218.400 31.160,218.220 30.800,218.000 30.800 C 217.780 30.800,217.600 30.564,217.600 30.275 C 217.600 29.987,217.285 29.402,216.900 28.975 C 216.515 28.549,215.945 27.705,215.632 27.100 C 215.320 26.495,214.915 26.000,214.732 26.000 C 214.550 26.000,214.400 25.818,214.400 25.596 C 214.400 25.374,213.860 24.628,213.200 23.937 C 212.540 23.246,212.000 22.524,212.000 22.331 C 212.000 22.139,211.278 21.221,210.395 20.291 C 209.512 19.361,207.757 17.516,206.495 16.190 C 205.233 14.865,203.570 13.344,202.800 12.810 C 202.030 12.276,201.310 11.728,201.200 11.593 C 200.754 11.044,197.339 8.891,196.500 8.628 C 196.005 8.473,195.600 8.178,195.600 7.973 C 195.600 7.768,195.240 7.600,194.800 7.600 C 194.360 7.600,194.000 7.420,194.000 7.200 C 194.000 6.980,193.640 6.800,193.200 6.800 C 192.760 6.800,192.400 6.620,192.400 6.400 C 192.400 6.180,192.130 6.000,191.800 6.000 C 191.470 6.000,191.200 5.820,191.200 5.600 C 191.200 5.380,190.840 5.200,190.400 5.200 C 189.960 5.200,189.600 5.020,189.600 4.800 C 189.600 4.580,189.240 4.400,188.800 4.400 C 188.360 4.400,188.000 4.220,188.000 4.000 C 188.000 3.780,187.460 3.600,186.800 3.600 C 186.140 3.600,185.600 3.420,185.600 3.200 C 185.600 2.980,185.161 2.800,184.624 2.800 C 184.087 2.800,183.536 2.620,183.400 2.400 C 183.264 2.180,182.623 2.000,181.976 2.000 C 181.329 2.000,180.800 1.820,180.800 1.600 C 180.800 1.380,180.095 1.200,179.233 1.200 C 178.339 1.200,177.595 0.986,177.501 0.702 C 177.335 0.204,156.820 -0.136,151.700 0.274 " stroke="none" fill="#fcdc44" fill-rule="evenodd"></path><path id="path2" d="M147.400 42.400 C 147.536 42.620,147.457 42.800,147.224 42.800 C 146.991 42.800,146.800 43.002,146.800 43.249 C 146.800 43.559,146.985 43.544,147.400 43.200 C 148.097 42.622,148.188 42.000,147.576 42.000 C 147.343 42.000,147.264 42.180,147.400 42.400 M137.324 71.800 C 137.326 73.120,137.401 73.612,137.490 72.893 C 137.579 72.174,137.577 71.094,137.486 70.493 C 137.395 69.892,137.322 70.480,137.324 71.800 M137.320 120.400 C 137.320 121.610,137.395 122.105,137.487 121.500 C 137.578 120.895,137.578 119.905,137.487 119.300 C 137.395 118.695,137.320 119.190,137.320 120.400 M204.000 146.249 C 204.000 146.780,204.109 146.808,204.600 146.400 C 204.930 146.126,205.200 145.834,205.200 145.751 C 205.200 145.668,204.930 145.600,204.600 145.600 C 204.270 145.600,204.000 145.892,204.000 146.249 M193.084 155.800 C 192.927 156.240,192.681 156.867,192.535 157.193 C 192.347 157.616,192.470 157.587,192.965 157.092 C 193.346 156.711,193.593 156.084,193.513 155.699 C 193.384 155.081,193.335 155.092,193.084 155.800 M242.841 170.323 C 242.570 170.830,242.436 171.459,242.542 171.722 C 242.653 171.994,242.750 171.912,242.768 171.533 C 242.786 171.167,243.007 170.798,243.260 170.713 C 243.513 170.629,243.633 170.299,243.527 169.981 C 243.384 169.552,243.207 169.640,242.841 170.323 M110.400 207.959 C 110.400 208.186,110.805 208.585,111.300 208.846 C 111.795 209.106,112.332 209.518,112.494 209.760 C 112.702 210.071,112.790 210.061,112.794 209.727 C 112.797 209.467,112.260 208.870,111.600 208.400 C 110.940 207.930,110.400 207.731,110.400 207.959 M130.892 366.075 C 131.091 366.673,132.000 367.002,132.000 366.476 C 132.000 366.261,131.715 365.976,131.367 365.843 C 130.977 365.693,130.794 365.782,130.892 366.075 " stroke="none" fill="#f8d4a8" fill-rule="evenodd"></path><path id="path3" d="M147.400 42.400 C 147.536 42.620,147.457 42.800,147.224 42.800 C 146.991 42.800,146.800 43.002,146.800 43.249 C 146.800 43.559,146.985 43.544,147.400 43.200 C 148.097 42.622,148.188 42.000,147.576 42.000 C 147.343 42.000,147.264 42.180,147.400 42.400 M137.324 71.800 C 137.326 73.120,137.401 73.612,137.490 72.893 C 137.579 72.174,137.577 71.094,137.486 70.493 C 137.395 69.892,137.322 70.480,137.324 71.800 M137.320 120.400 C 137.320 121.610,137.395 122.105,137.487 121.500 C 137.578 120.895,137.578 119.905,137.487 119.300 C 137.395 118.695,137.320 119.190,137.320 120.400 M204.000 146.249 C 204.000 146.780,204.109 146.808,204.600 146.400 C 204.930 146.126,205.200 145.834,205.200 145.751 C 205.200 145.668,204.930 145.600,204.600 145.600 C 204.270 145.600,204.000 145.892,204.000 146.249 M193.084 155.800 C 192.927 156.240,192.681 156.867,192.535 157.193 C 192.347 157.616,192.470 157.587,192.965 157.092 C 193.346 156.711,193.593 156.084,193.513 155.699 C 193.384 155.081,193.335 155.092,193.084 155.800 M242.841 170.323 C 242.570 170.830,242.436 171.459,242.542 171.722 C 242.653 171.994,242.750 171.912,242.768 171.533 C 242.786 171.167,243.007 170.798,243.260 170.713 C 243.513 170.629,243.633 170.299,243.527 169.981 C 243.384 169.552,243.207 169.640,242.841 170.323 M110.400 207.959 C 110.400 208.186,110.805 208.585,111.300 208.846 C 111.795 209.106,112.332 209.518,112.494 209.760 C 112.702 210.071,112.790 210.061,112.794 209.727 C 112.797 209.467,112.260 208.870,111.600 208.400 C 110.940 207.930,110.400 207.731,110.400 207.959 M130.892 366.075 C 131.091 366.673,132.000 367.002,132.000 366.476 C 132.000 366.261,131.715 365.976,131.367 365.843 C 130.977 365.693,130.794 365.782,130.892 366.075 " stroke="none" fill="#f8d4a8" fill-rule="evenodd"></path><path id="path4" d="M147.400 42.400 C 147.536 42.620,147.457 42.800,147.224 42.800 C 146.991 42.800,146.800 43.002,146.800 43.249 C 146.800 43.559,146.985 43.544,147.400 43.200 C 148.097 42.622,148.188 42.000,147.576 42.000 C 147.343 42.000,147.264 42.180,147.400 42.400 M137.324 71.800 C 137.326 73.120,137.401 73.612,137.490 72.893 C 137.579 72.174,137.577 71.094,137.486 70.493 C 137.395 69.892,137.322 70.480,137.324 71.800 M137.320 120.400 C 137.320 121.610,137.395 122.105,137.487 121.500 C 137.578 120.895,137.578 119.905,137.487 119.300 C 137.395 118.695,137.320 119.190,137.320 120.400 M204.000 146.249 C 204.000 146.780,204.109 146.808,204.600 146.400 C 204.930 146.126,205.200 145.834,205.200 145.751 C 205.200 145.668,204.930 145.600,204.600 145.600 C 204.270 145.600,204.000 145.892,204.000 146.249 M193.084 155.800 C 192.927 156.240,192.681 156.867,192.535 157.193 C 192.347 157.616,192.470 157.587,192.965 157.092 C 193.346 156.711,193.593 156.084,193.513 155.699 C 193.384 155.081,193.335 155.092,193.084 155.800 M242.841 170.323 C 242.570 170.830,242.436 171.459,242.542 171.722 C 242.653 171.994,242.750 171.912,242.768 171.533 C 242.786 171.167,243.007 170.798,243.260 170.713 C 243.513 170.629,243.633 170.299,243.527 169.981 C 243.384 169.552,243.207 169.640,242.841 170.323 M110.400 207.959 C 110.400 208.186,110.805 208.585,111.300 208.846 C 111.795 209.106,112.332 209.518,112.494 209.760 C 112.702 210.071,112.790 210.061,112.794 209.727 C 112.797 209.467,112.260 208.870,111.600 208.400 C 110.940 207.930,110.400 207.731,110.400 207.959 M130.892 366.075 C 131.091 366.673,132.000 367.002,132.000 366.476 C 132.000 366.261,131.715 365.976,131.367 365.843 C 130.977 365.693,130.794 365.782,130.892 366.075 " stroke="none" fill="#f8d4a8" fill-rule="evenodd"></path></g></svg>